<svg width="95" height="84" viewBox="0 0 95 84" fill="none" xmlns="http://www.w3.org/2000/svg">
<path d="M36.1014 0.00521117C36.6694 0.191814 37.2609 0.330136 37.8041 0.57285C40.0931 1.59721 41.1601 3.73336 40.3446 5.80948C40.0671 6.51544 39.4991 7.10657 39.0418 7.77599L39.1343 7.81775C40.7784 8.51066 41.6513 9.73076 41.6656 11.5211C41.6799 13.348 40.8527 14.7051 39.1903 15.4072C38.3162 15.7647 37.3862 15.9657 36.4427 16.0009C34.314 16.087 32.18 16.0322 30.0473 16.0309C29.9093 16.0218 29.7719 16.0053 29.6357 15.9813C29.6357 15.7451 29.6252 15.5337 29.6357 15.3289C29.9125 10.5034 29.8764 5.66504 29.5275 0.844273C29.5093 0.565021 29.5132 0.284464 29.5054 0.00390625L36.1014 0.00521117ZM32.9747 9.11484V13.1849C34.1068 13.1849 35.2051 13.2345 36.2968 13.1718C37.5722 13.0988 38.4073 12.3014 38.436 11.2601C38.4647 10.1549 37.6178 9.21923 36.358 9.12659C35.2728 9.0522 34.1759 9.11484 32.976 9.11484H32.9747ZM32.9043 6.55068C34.0769 6.4776 35.1399 6.52327 36.1548 6.31579C37.3768 6.06655 37.8159 4.7799 37.0746 3.80122C36.8062 3.44628 36.3711 3.07046 35.962 3.0013C34.9445 2.83036 33.8997 2.83036 32.9043 2.76511V6.55068Z" fill="white"/>
<path d="M50.4585 0.00521967L51.2402 0.266203C53.993 1.16268 55.5368 4.28535 54.531 6.92128C54.0164 8.27448 53.0589 9.17748 51.631 9.66161L55.0665 16.0283C54.3578 16.0283 53.7871 16.0361 53.2308 16.044C51.8173 16.0635 51.0982 15.766 50.6526 14.4011C50.2214 13.0779 49.4736 11.8617 48.916 10.5764C48.6763 10.027 48.3688 9.75426 47.7552 9.84821C47.4621 9.89388 47.1559 9.85604 46.7951 9.85604C46.7794 10.1288 46.7612 10.3597 46.7521 10.5907C46.6908 12.2075 46.6218 13.8243 46.5788 15.4424C46.5671 15.873 46.4381 16.057 45.9756 16.0374C45.1418 16.0035 44.3067 16.0283 43.4482 16.0283C43.4286 15.9035 43.4177 15.7775 43.4156 15.6512C43.7478 10.6677 43.6501 5.68552 43.3283 0.70596C43.3127 0.47238 43.3375 0.234885 43.344 0L50.4585 0.00521967ZM46.7026 7.32059C46.8123 7.34357 46.9232 7.36056 47.0348 7.37148C47.9806 7.37148 48.9277 7.38583 49.8736 7.37148C51.0265 7.35582 51.747 6.70727 51.8786 5.59679C52.031 4.30884 51.4291 3.03785 50.3986 2.91519C49.1596 2.76903 47.8907 2.88126 46.7026 2.88126V7.32059Z" fill="white"/>
<path d="M73.0882 0.00518799C73.1481 0.905581 73.2093 1.80597 73.2758 2.79902H65.5893V6.46844H72.4941V9.29881H65.6805V13.1757H73.3748C73.3188 14.0892 73.2927 14.9217 73.1924 15.7438C73.1781 15.8625 72.8107 16.0191 72.6048 16.0204C69.697 16.0387 66.7892 16.0335 63.8761 16.0335H62.2007C62.5772 10.6337 62.4405 5.31881 62.0991 0.00518799L73.0882 0.00518799Z" fill="white"/>
<path d="M16.4409 0.00518799C18.2245 4.37536 20.0184 8.74031 21.7824 13.1183C22.1485 14.0317 22.4077 14.983 22.7543 16.0296C21.63 16.0296 20.6268 16.0465 19.6276 16.01C19.4973 16.01 19.3045 15.7647 19.2367 15.5963C18.9762 14.8904 18.726 14.1753 18.5111 13.4524C18.399 13.0765 18.1997 12.9656 17.8167 12.9682C15.8113 12.9769 13.8067 12.9682 11.803 12.9421C11.4369 12.9421 11.2702 13.0622 11.1516 13.3923C10.8663 14.1374 10.5667 14.8786 10.2162 15.5937C10.153 15.7039 10.0663 15.7987 9.96225 15.8714C9.8582 15.944 9.73938 15.9927 9.61432 16.0139C8.69065 16.0596 7.76306 16.0335 6.79248 16.0335C6.79291 15.9241 6.80781 15.8153 6.83678 15.7099C9.16747 10.605 11.0748 5.33447 12.8192 0.00518799H16.4409ZM17.4832 10.1496C16.6194 7.90124 15.7713 5.69593 14.9232 3.49454L14.7656 3.5376C13.9839 5.7142 13.1944 7.8895 12.3788 10.1535L17.4832 10.1496Z" fill="white"/>
<path d="M85.3796 0.00518799V2.84077H77.7882V6.458H84.6826V9.30925H77.9081C77.8924 9.5872 77.8755 9.81425 77.8664 10.0413C77.7986 11.829 77.7179 13.6168 77.6749 15.4058C77.6631 15.92 77.4716 16.0661 76.9766 16.0439C76.1441 16.0061 75.3103 16.0335 74.4036 16.0335C74.7471 10.6944 74.6992 5.33726 74.2603 0.00518799H85.3796Z" fill="white"/>
<path d="M60.159 0.00521967C60.2463 4.22793 60.3453 8.44934 60.4117 12.6721C60.4261 13.6181 60.3153 14.5668 60.2815 15.5142C60.2684 15.8874 60.1512 16.0518 59.746 16.0361C58.8705 16.01 57.9937 16.0283 57.0388 16.0283C57.414 10.6246 57.2994 5.31101 56.9229 0L60.159 0.00521967Z" fill="white"/>
<path d="M53.0495 19.3284C52.8528 20.3005 52.742 21.1814 52.4919 22.0204C51.9017 24.0039 51.2451 25.9678 50.6146 27.9395C50.496 28.3088 50.3644 28.6755 50.2407 29.0435C49.4147 31.5085 51.2946 32.8904 53.439 32.448C55.0975 32.1061 56.1983 31.0048 56.7494 29.4624C57.8854 26.281 59.1257 23.1244 59.6494 19.7564C59.6742 19.5998 59.8761 19.3545 60.0025 19.3506C60.9457 19.3166 61.8902 19.3323 62.9676 19.3323C62.7305 20.4415 62.5859 21.488 62.2797 22.4863C61.5476 24.873 60.7307 27.2336 59.9673 29.6124C59.3719 31.4706 58.9667 33.368 59.1465 35.3371C59.3454 37.6226 60.3894 39.7513 62.0739 41.3058C63.4132 42.5729 64.9322 43.6481 66.3614 44.8212C66.7337 45.1142 67.0778 45.4414 67.3893 45.7986C68.0198 46.549 68.0081 47.2667 67.1978 47.7938C66.1165 48.4755 64.988 49.079 63.8209 49.5998C62.2354 50.3306 60.5965 50.9478 59.0006 51.6668C58.3374 51.9698 57.71 52.3457 57.1298 52.7878C55.9091 53.7182 55.7124 54.8169 56.5318 56.1283C56.9292 56.7638 57.436 57.3341 57.9141 57.9148C58.3922 58.4955 58.9355 59.0892 59.4371 59.6751C60.3412 60.7399 60.6929 64.5855 60.2279 65.9061C59.3954 68.268 60.1796 70.0075 62.0895 71.4181C62.6397 71.8351 63.1595 72.2908 63.6451 72.7817C64.8423 73.9561 66.0214 81.7856 64.8371 82.9888H53.254C52.5609 82.1928 53.6006 76.4642 51.4913 73.7695C50.4973 72.7556 49.4408 71.7939 48.3529 70.8804C46.9199 69.6786 46.3896 68.2367 46.9876 66.4437C47.6208 64.549 47.0905 60.3785 45.7499 58.9835C45.0121 58.227 44.3237 57.4237 43.6889 56.5785C42.437 54.8822 42.6467 53.5237 44.4602 52.4654C45.9571 51.5938 47.5947 50.9661 49.175 50.2471C50.5208 49.6299 51.9108 49.0975 53.2136 48.3993C55.0831 47.3945 55.1587 46.4302 53.5211 45.0731C52.3772 44.1257 51.1266 43.3049 49.9944 42.3432C47.8253 40.4981 46.2854 38.264 46.0092 35.3267C45.8568 33.7125 46.09 32.1335 46.5512 30.595C47.0124 29.0565 47.6064 27.535 48.0611 25.9835C48.6487 23.9778 49.1763 21.9539 49.6831 19.926C49.7912 19.4902 49.915 19.3023 50.3866 19.3232C51.223 19.3558 52.0607 19.3284 53.0495 19.3284Z" fill="white"/>
<path d="M22.8107 19.3284C22.3703 21.0783 22.0199 22.6964 21.5483 24.2779C21.0884 25.8256 20.4852 27.3288 19.9849 28.8647C19.8109 29.35 19.7262 29.8629 19.7348 30.3784C19.826 31.9091 21.3815 32.8578 23.1142 32.4546C24.6554 32.1022 25.7589 31.1496 26.3087 29.6973C27.4929 26.5655 28.7136 23.4467 29.2295 20.1192C29.3324 19.4524 29.5956 19.2736 30.2235 19.3167C30.9896 19.3688 31.7608 19.3284 32.6324 19.3284C32.4526 20.2301 32.3523 21.0457 32.123 21.8234C31.5498 23.7664 30.8971 25.6873 30.3147 27.629C29.8314 29.2379 29.2894 30.8417 28.9729 32.4859C28.3215 35.8917 29.2934 38.88 31.7465 41.3019C32.8891 42.432 34.2309 43.3598 35.4751 44.3893C36.0053 44.8278 36.5616 45.248 37.0241 45.753C37.7276 46.5216 37.6964 47.2732 36.8287 47.8408C35.776 48.5044 34.6761 49.0897 33.5378 49.592C31.9172 50.3332 30.2418 50.9505 28.6237 51.6982C27.8831 52.0433 27.1914 52.4851 26.5666 53.0122C25.6247 53.8056 25.4592 54.7895 26.0716 55.8609C26.4624 56.5486 26.9835 57.1658 27.4838 57.7843C28.0909 58.5399 28.7566 59.2484 29.3559 60.0105C30.019 60.8535 30.2301 64.4342 30.0073 65.4911C29.9031 65.9766 29.8119 66.4646 29.6959 66.9461C29.3624 68.332 29.7024 69.5103 30.7603 70.4694C31.4794 71.1219 32.209 71.76 32.9334 72.4059C34.6817 73.9718 37.5231 79.7004 35.9298 83.3803L20.7861 83.2498C22.7872 79.4068 19.809 72.3328 18.0607 70.8922C16.5925 69.6878 16.0674 68.2276 16.6771 66.4098C17.3051 64.5425 16.7709 60.3863 15.4499 59.0148C14.7985 58.3324 14.1628 57.616 13.5765 56.8722C12.0262 54.9044 12.2737 53.4481 14.4741 52.2358C15.872 51.4672 17.3806 50.897 18.8385 50.2445C20.179 49.6403 21.5548 49.104 22.8498 48.4176C24.7792 47.3893 24.8495 46.4093 23.1507 45.0248C22.0173 44.0996 20.7887 43.2906 19.6749 42.3445C17.5995 40.5803 16.087 38.4494 15.7287 35.6555C15.4812 33.7334 15.8134 31.8713 16.3801 30.0444C17.1618 27.5376 18.0216 25.0544 18.7994 22.545C19.0532 21.6539 19.249 20.7473 19.3856 19.8308C19.4495 19.4576 19.5693 19.3088 19.955 19.3258C20.8461 19.3454 21.7202 19.3284 22.8107 19.3284Z" fill="white"/>
<path d="M89.4545 19.3924C89.2682 20.3293 89.0897 21.2271 88.9073 22.1484H81.1648C80.7987 23.3619 80.4444 24.5324 80.0601 25.8021H86.8854C86.5466 26.7652 86.2718 27.6173 85.9317 28.4433C85.8796 28.5738 85.5409 28.6351 85.3285 28.6364C83.433 28.6508 81.5361 28.6599 79.6392 28.6364C79.1742 28.6364 78.937 28.7565 78.8224 29.2236C78.5618 30.2871 78.257 31.3415 77.943 32.4977H85.6907C85.6907 33.5794 85.5995 34.5855 85.7076 35.5838C86.0151 38.405 87.5537 40.5568 89.6473 42.3393C90.6895 43.2293 91.8399 44.0031 92.9212 44.8552C93.3119 45.1618 93.6664 45.5121 93.9778 45.8992C94.5236 46.5895 94.4989 47.2785 93.7758 47.7508C92.6777 48.4441 91.5323 49.0594 90.3482 49.5921C88.6663 50.375 86.9284 51.0275 85.2425 51.8013C84.6021 52.1031 84.0035 52.4869 83.4616 52.9431C82.4741 53.7626 82.2891 54.77 82.9223 55.887C83.304 56.5538 83.8095 57.1541 84.2954 57.7556C84.8244 58.4081 85.4002 59.0227 85.9461 59.6621C86.858 60.7243 87.215 64.5686 86.7486 65.8892C85.9031 68.2811 86.7108 70.0349 88.6467 71.4468C89.0467 71.7378 89.3906 72.0993 89.7789 72.4099C91.4074 73.6978 91.9832 80.5995 91.6718 82.6222C91.6379 82.8349 91.608 83.0489 91.5689 83.3138H80.6059C80.6203 83.0919 80.6163 82.8649 80.6528 82.643C80.9876 80.5878 80.3688 73.6939 78.7351 72.3772C77.9469 71.743 77.2095 71.0436 76.4709 70.352C75.5068 69.4464 75.1993 68.3333 75.499 67.048C75.5576 66.7961 75.5837 66.5351 75.6644 66.2911C76.2377 64.5464 75.7674 60.4633 74.5388 59.1689C74.0789 58.6834 73.6269 58.185 73.2035 57.6721C72.791 57.2029 72.4106 56.7063 72.0648 56.1858C71.2115 54.8222 71.3665 53.6478 72.6954 52.7578C73.808 52.0127 75.0495 51.4529 76.2715 50.8813C77.9417 50.1101 79.6588 49.4394 81.3342 48.676C81.8762 48.4165 82.3806 48.0846 82.8337 47.6895C83.4343 47.1832 83.515 46.5751 83.0109 45.9775C82.5108 45.4158 81.9595 44.902 81.3641 44.4429C80.5278 43.7656 79.6275 43.168 78.7977 42.4855C75.1134 39.4542 73.7923 35.6295 75.0873 30.9957C75.5628 29.2993 76.2142 27.646 76.7106 25.9522C77.3033 23.9283 77.8284 21.8835 78.3482 19.84C78.4368 19.4942 78.5123 19.318 78.9097 19.318C82.3152 19.3323 85.7207 19.3271 89.1262 19.3297C89.2368 19.3437 89.3465 19.3646 89.4545 19.3924Z" fill="white"/>
<path d="M79.1233 83.336H75.598C75.6306 82.7292 75.6644 82.1615 75.6931 81.5835C75.7595 80.2263 75.2749 73.8675 74.2939 72.9488C73.5122 72.2128 72.7058 71.4899 71.8785 70.8009C70.5028 69.6565 69.9973 68.2381 70.5614 66.5312C71.2063 64.5817 70.6734 60.3825 69.2951 58.9627C68.5725 58.2205 67.8943 57.4362 67.264 56.6139C65.9782 54.9292 66.1723 53.4964 68.017 52.4538C69.7107 51.496 71.5476 50.7978 73.322 49.9849C74.4515 49.4629 75.6149 49.0062 76.7093 48.4111C78.597 47.3816 78.6765 46.4185 77.0089 45.0445C75.9471 44.1702 74.7942 43.4133 73.7259 42.5364C71.4056 40.6234 69.8892 38.6921 69.8566 36.9514C69.8397 36.0705 69.656 35.529 69.3198 34.7721C68.7518 33.4959 67.9467 31.562 67.6431 29.8317C67.5598 29.3607 67.3735 29.2941 66.8862 29.2158C66.6387 29.1754 66.2348 29.144 66.0537 29.2158C65.9496 29.2519 65.8551 29.3113 65.7775 29.3896C65.6998 29.4678 65.641 29.5628 65.6056 29.6673C65.289 31.074 64.9021 32.482 64.7809 33.9096C64.5438 36.693 65.5626 39.1032 67.4829 41.0736C68.5447 42.1619 69.7954 43.0675 70.964 44.0514C71.6219 44.6047 72.3384 45.0953 72.9351 45.7139C73.7076 46.506 73.6699 47.3085 72.7279 47.884C71.4681 48.6512 70.1145 49.2711 68.7727 49.8909C67.3109 50.5669 65.7971 51.1319 64.3432 51.8196C63.6651 52.146 63.0351 52.5645 62.4711 53.0632C61.5904 53.8357 61.4288 54.7896 61.9995 55.8113C62.3968 56.5173 62.9297 57.1528 63.4403 57.7909C64.0201 58.5138 64.6585 59.1885 65.2395 59.9101C65.9756 60.8235 66.1984 64.4773 65.9352 65.6269C65.8349 66.068 65.7515 66.5143 65.6447 66.954C65.3072 68.3412 65.6577 69.5169 66.7143 70.4773C67.5611 71.2446 68.4079 72.0093 69.269 72.7622C70.9379 74.2289 71.0721 81.3042 70.663 83.3438H67.5728C67.6093 82.7775 67.6418 82.2477 67.6783 81.7192C67.7747 80.2629 67.2575 73.8349 66.1957 72.8575C65.4023 72.128 64.5998 71.4077 63.7804 70.7083C62.4958 69.6148 62.075 68.2746 62.5388 66.6474C62.6509 66.2559 62.7108 65.8475 62.7994 65.4468C63.0078 64.4864 62.8437 60.9762 62.26 60.1959C61.692 59.4377 61.0536 58.7343 60.4557 57.9997C59.9671 57.3981 59.4356 56.8253 59.0226 56.1728C58.1784 54.8405 58.3386 53.6739 59.6375 52.7957C60.7449 52.0466 61.9825 51.4751 63.2032 50.9127C64.8904 50.1297 66.6244 49.4551 68.3193 48.6943C68.8236 48.4544 69.2944 48.1495 69.7198 47.7874C70.4181 47.2132 70.5119 46.5386 69.8957 45.8783C69.2795 45.218 68.5564 44.6712 67.8555 44.1036C67.1546 43.536 66.4016 43.0284 65.7072 42.4503C62.0841 39.4137 60.7644 35.6295 62.0425 31.0492C62.5271 29.3071 63.1928 27.6186 63.7022 25.883C64.2846 23.9009 64.8096 21.9017 65.2981 19.8935C65.4115 19.4237 65.5769 19.3154 66.016 19.3206C67.8477 19.3402 69.6794 19.3206 71.5111 19.3311C75.1107 19.3519 76.8526 22.3911 75.0287 25.5059C74.0841 27.124 72.7436 28.2945 70.9457 28.8987C70.8839 28.9175 70.8241 28.9424 70.7672 28.9731C70.7198 29.0089 70.6761 29.0496 70.637 29.0944C71.0707 30.9979 71.779 32.828 72.7397 34.5268C72.9309 34.8577 73.0586 35.2215 73.1162 35.5995C73.507 38.4063 75.0078 40.5581 77.1092 42.3394C78.1423 43.2137 79.2666 43.9823 80.3362 44.8187C80.6768 45.0829 80.9941 45.3758 81.2847 45.6943C82.0299 46.5125 82.0233 47.285 81.1049 47.88C80.0513 48.5372 78.9515 49.1168 77.814 49.6143C76.2142 50.345 74.5571 50.961 72.969 51.7021C72.2287 52.0484 71.5364 52.4892 70.9092 53.0136C69.9882 53.7835 69.8149 54.7543 70.3959 55.8048C70.7672 56.4781 71.2688 57.0836 71.7561 57.6839C72.3254 58.3872 72.9507 59.0449 73.5357 59.7365C74.4229 60.7805 74.7473 64.6143 74.303 65.914C73.5083 68.2381 74.2235 69.9932 76.1386 71.3803C76.4865 71.6322 76.7809 71.9584 77.1249 72.2155C79.1207 73.6978 79.7044 80.8945 79.1233 83.336ZM66.6322 26.6947C67.7109 26.6947 68.7166 26.7025 69.725 26.6947C71.347 26.679 72.7866 25.1392 72.7045 23.5185C72.6693 22.7943 72.2407 22.2136 71.5502 22.1849C70.3777 22.1275 69.2052 22.1692 68.0548 22.1692C67.5793 23.683 67.122 25.134 66.6322 26.6947Z" fill="white"/>
<path d="M12.2278 83.3268H9.07118C9.11026 82.7709 9.14935 82.2607 9.18322 81.7505C9.28353 80.272 8.76111 73.8231 7.67719 72.8327C6.91246 72.1358 6.14772 71.4377 5.35432 70.7748C3.99681 69.6408 3.51869 68.2315 4.07498 66.556C4.72637 64.5869 4.20526 60.3694 2.80606 58.9288C2.08154 58.1892 1.40777 57.4014 0.789344 56.5708C-0.454821 54.8744 -0.252888 53.516 1.57102 52.4603C3.06401 51.5925 4.69771 50.9675 6.27669 50.2419C7.61987 49.626 9.01255 49.0936 10.3153 48.3968C12.2109 47.3815 12.2786 46.4042 10.6046 45.0379C9.48807 44.1245 8.27778 43.3259 7.17692 42.3968C5.09246 40.6403 3.55647 38.5238 3.17605 35.7352C2.90768 33.7699 3.2451 31.8622 3.82745 29.9935C4.61303 27.4894 5.47287 25.0035 6.24543 22.4929C6.51901 21.6107 6.62584 20.679 6.85513 19.7812C6.90073 19.6038 7.15477 19.3493 7.31502 19.348C10.7635 19.3258 14.2107 19.3349 17.6592 19.3402C17.7491 19.3592 17.8365 19.3886 17.9197 19.4276C17.7425 20.3241 17.5641 21.2232 17.3804 22.1523H9.63008L8.52531 25.7969H15.3519C15.0145 26.7586 14.7396 27.6107 14.4009 28.4368C14.3488 28.5672 14.0101 28.6351 13.8042 28.6364C11.9074 28.6508 10.0105 28.6586 8.11493 28.6364C7.66026 28.6364 7.42966 28.746 7.28636 29.2106C6.64538 31.305 6.12427 33.4111 6.39395 35.6295C6.7457 38.4455 8.27908 40.5881 10.3766 42.3694C11.4097 43.245 12.5379 44.0083 13.6023 44.8487C13.994 45.1515 14.3494 45.4988 14.6615 45.8835C15.2164 46.5803 15.1708 47.1962 14.4804 47.7456C13.9468 48.1776 13.3617 48.5414 12.7385 48.8287C10.6541 49.763 8.5214 50.6138 6.43563 51.556C5.65293 51.9104 4.91405 52.3549 4.23392 52.8805C3.1526 53.7195 2.9637 54.7987 3.65548 55.9757C4.02417 56.6021 4.5049 57.1671 4.96739 57.7322C5.51456 58.399 6.10342 59.0305 6.66102 59.6895C7.54691 60.7335 7.90909 64.5608 7.45051 65.8592C6.59848 68.2733 7.40231 70.0506 9.36822 71.4703C9.733 71.7313 10.06 72.0536 10.4 72.3524C12.3347 74.0527 12.7972 80.7104 12.2278 83.3268Z" fill="white"/>
<path d="M39.0619 22.1509H33.6892C33.8559 21.2675 33.9875 20.4271 34.1933 19.605C34.2272 19.4745 34.5842 19.3441 34.7978 19.3441C37.1429 19.3258 39.497 19.3323 41.8472 19.3323H48.2049C48.0094 20.3254 47.8336 21.2231 47.6499 22.1522C45.9693 22.1522 44.3551 22.1588 42.741 22.1522C42.427 22.1522 42.2524 22.2044 42.1404 22.5581C41.5111 24.5533 40.8024 26.5237 40.207 28.5294C39.755 30.0548 39.3172 31.6024 39.0788 33.171C38.6645 35.8943 39.454 38.3345 41.1776 40.4785C42.311 41.8904 43.7193 42.9852 45.1694 44.0422C45.877 44.5321 46.5436 45.079 47.1626 45.6773C47.9599 46.4876 47.9222 47.3019 46.9529 47.8956C45.7126 48.6538 44.376 49.2619 43.0523 49.8713C41.5697 50.5525 40.039 51.1292 38.5629 51.8287C37.9026 52.1459 37.2889 52.5525 36.739 53.037C35.8349 53.82 35.659 54.7947 36.2596 55.8361C36.6856 56.576 37.2562 57.2362 37.793 57.9083C38.3701 58.6325 39.0072 59.3111 39.5765 60.0405C40.237 60.89 40.4194 64.4772 40.1979 65.529C40.0676 66.141 39.9373 66.7517 39.8227 67.3676C39.6338 68.4116 39.8787 69.3589 40.6343 70.1079C41.3875 70.8792 42.1839 71.6068 43.0198 72.2872C44.7798 73.6743 45.3648 80.6726 45.0208 82.8426C44.9557 83.2459 44.8254 83.3907 44.4137 83.3764C43.5591 83.349 42.7019 83.3685 41.7938 83.3685C41.8368 82.7578 42.1951 81.4581 42.2263 80.9257C42.896 78.1332 41.4955 73.8492 40.4533 72.8861C39.6781 72.1684 38.8899 71.4585 38.0848 70.7813C36.7286 69.6473 36.2361 68.2393 36.7989 66.5612C37.4686 64.5621 36.9136 60.3341 35.4961 58.8831C34.785 58.1609 34.1255 57.3895 33.5224 56.5747C32.2769 54.8783 32.4802 53.5159 34.2963 52.4616C35.7906 51.5938 37.423 50.9674 39.0032 50.2432C40.3477 49.626 41.7391 49.0949 43.0419 48.398C44.9388 47.3815 45.0065 46.4041 43.3324 45.0379C42.2146 44.1244 41.0043 43.3258 39.9022 42.3967C37.8177 40.639 36.283 38.5211 35.9026 35.7325C35.6355 33.766 35.9704 31.8569 36.5618 29.9909C37.3044 27.6499 38.0965 25.3232 38.8625 22.9887C38.9316 22.746 38.9772 22.4915 39.0619 22.1509Z" fill="white"/>
</svg>
