<svg width="49" height="49" viewBox="0 0 49 49" fill="none" xmlns="http://www.w3.org/2000/svg">
<path d="M41.3234 26.9144C41.2763 25.1719 39.8178 22.923 39.7183 21.7341C39.6132 20.4777 39.8048 19.0952 39.6076 18.1187C39.1046 15.6163 37.3187 13.7234 35.7244 12.3085C34.4363 11.1656 33.2629 10.3398 31.3096 9.51186C29.2867 8.65491 26.6198 8.12548 24.4052 8.12548C22.1907 8.12548 18.7604 9.07429 17.0882 10.0118C13.8819 11.8085 12.7197 13.5436 10.5381 16.2748C9.14405 18.0199 7.13021 20.3187 7.81317 23.2245C8.54846 26.3673 9.69811 26.281 10.3508 28.5655C10.7085 29.8181 9.76212 31.0714 10.3711 33.2303C10.6795 34.3238 11.5952 35.2128 12.4083 36.0273C13.9148 37.5363 16.0675 38.872 18.0207 39.6995C20.0422 40.5519 22.2133 40.991 24.4065 40.991C26.5998 40.991 28.7709 40.5519 30.7923 39.6995C33.3961 38.6017 34.685 37.7252 36.1924 36.2162C37.6997 34.7072 37.7252 33.9083 38.7495 32.0475C39.6686 30.3743 41.3619 28.3355 41.3234 26.9144ZM11.6908 31.5528C11.7552 30.0594 12.7232 28.9823 12.2422 27.323C12.045 26.6428 11.6998 26.0558 11.3227 25.5034C12.8547 25.4999 14.9165 25.4982 16.266 25.5099C16.3235 25.5883 16.3823 25.668 16.4438 25.7495C18.5164 28.5136 17.17 29.8735 16.9104 31.6156C14.6631 31.6399 12.6709 31.6684 11.6908 31.5528ZM30.7378 21.7432C30.8187 22.6799 30.9813 23.2908 31.1742 23.7795C29.4312 23.7305 27.2253 23.7968 24.8343 23.8228C23.8637 21.8139 24.2863 20.249 24.682 19.2711C24.8875 18.7647 25.1807 17.9944 25.378 17.2444C26.5147 17.2535 27.618 17.2722 28.5722 17.3146C28.9069 17.3293 29.8485 17.419 30.9459 17.4714C30.9917 18.5468 30.5639 19.723 30.7378 21.7432ZM27.0813 15.6908C26.5821 15.6687 26.0903 15.6553 25.6038 15.6475C25.6548 14.0193 25.5787 11.4281 25.5281 9.90568C26.1864 10.335 26.9913 11.0858 28.019 12.295C28.8996 13.3314 29.8927 14.6103 30.4965 15.9014C29.2871 15.8368 27.9809 15.7307 27.0813 15.6908ZM23.9446 9.93774C23.9567 11.2886 23.9671 13.4735 23.9303 15.18C23.9273 15.3199 23.9173 15.4772 23.9013 15.6449C22.4606 15.6548 21.0467 15.6934 19.6033 15.6934H19.0843C19.6816 14.7563 20.1912 13.9509 20.9494 13.0532C22.3261 11.4242 23.2703 10.4884 23.9446 9.93774ZM17.8893 17.5026C17.9602 17.4004 18.029 17.3007 18.096 17.2024C18.6427 17.2024 19.2292 17.2102 19.859 17.2193C20.9437 17.2345 22.2668 17.2323 23.6289 17.2349C23.562 17.5193 23.4752 17.7987 23.3693 18.0711C22.9122 19.1975 22.6591 20.5483 22.7206 22.0053C22.7474 22.65 22.9368 23.2618 23.1838 23.8297C21.4593 23.8224 17.8521 23.6751 16.5662 23.6655C16.2046 22.9568 15.9481 22.1492 16.0125 21.2753C16.1008 20.1108 17.1981 18.4969 17.891 17.5026H17.8893ZM18.109 25.9661C18.0277 25.8387 17.9239 25.6944 17.8062 25.5328C19.7054 25.561 22.5808 25.5549 24.112 25.5536C24.804 26.7398 25.3927 27.6544 25.2768 28.6522C25.1803 29.4853 24.801 30.3553 24.4982 31.0814C24.4277 31.2517 24.3633 31.4154 24.3049 31.5818C22.5112 31.5818 20.7725 31.5978 19.4329 31.5978H19.0657C19.0761 31.5233 19.0882 31.4488 19.1029 31.3734C19.5501 29.108 19.4308 28.0348 18.1116 25.9661H18.109ZM19.4204 33.2299C20.8728 33.2147 22.298 33.2039 23.9913 33.19C23.9609 33.7121 23.9582 34.2355 23.9831 34.7579C24.0285 35.9372 23.9831 37.7742 23.9372 39.0553C23.0968 38.4561 22.2448 37.4206 20.9212 36.0347C20.0778 35.1513 19.4399 34.2307 19.1678 33.2325L19.4204 33.2299ZM25.5622 39.0015C25.5705 37.9444 25.5726 36.5593 25.5441 35.4923C25.5289 34.929 25.532 34.0539 25.6552 33.174L26.3473 33.1683C27.4286 33.1588 29.0765 33.2411 30.4614 33.2368H30.5129C29.9575 34.0634 29.3403 34.8866 28.6877 35.7864C27.6271 37.2499 26.3819 38.4128 25.5648 39.0015H25.5622ZM30.0925 31.6741C28.9026 31.6208 27.4973 31.5974 26.0553 31.5874C26.07 31.5519 26.0847 31.5168 26.0986 31.4821C26.4381 30.7131 26.8092 29.6023 26.9268 28.5885C27.0402 27.6128 26.4662 26.5809 25.836 25.5502C28.0419 25.5406 30.4104 25.5207 31.9714 25.519C31.9991 25.5965 32.0263 25.6771 32.0523 25.7616C32.7322 27.9664 32.6305 29.322 31.7612 31.1061C31.6654 31.3019 31.5658 31.4946 31.4623 31.684C30.9614 31.6905 30.4528 31.6897 30.0925 31.6741ZM32.2322 21.7363C32.2322 20.4522 32.6608 18.8262 32.6768 17.5065C32.8248 17.5065 32.9718 17.5013 33.1167 17.4961C35.4653 17.4095 36.7854 17.4593 37.5211 17.52C38.1569 19.149 37.4752 19.3483 37.7542 22.1501C37.8217 22.8272 37.9908 23.393 38.1794 23.9238C36.4843 23.8423 34.1907 23.919 32.9281 23.8731C32.5722 23.0252 32.2339 22.2371 32.2339 21.7359L32.2322 21.7363ZM34.4506 13.3452C35.5008 14.1822 36.1517 14.9049 36.7067 15.8489C35.4523 15.8923 33.6846 15.9469 32.3931 15.9542C31.7413 14.2464 30.8459 13.0324 29.6046 11.7205C29.0553 11.14 28.48 10.5187 27.9433 10.0339C30.5034 10.491 32.2024 11.5507 34.4523 13.3448L34.4506 13.3452ZM15.1345 14.109C16.8214 12.5723 17.9598 10.7042 21.4061 10.027C20.7474 10.6769 20.0575 11.51 19.445 12.3873C18.58 13.6294 17.9671 14.7294 17.3867 15.712C15.8092 15.7385 14.2777 15.7865 13.1514 15.8273C13.7569 15.3121 14.4226 14.7589 15.1362 14.1086L15.1345 14.109ZM9.60815 21.7489C9.7578 19.7702 10.4053 18.5429 11.4144 17.442C12.1388 17.3471 13.593 17.2288 16.4373 17.2054C15.6726 18.2885 14.7937 19.3054 14.4957 20.7069C14.3369 21.4491 14.2197 22.1565 15.0627 23.6781L10.1099 23.7249C9.77121 23.1253 9.55192 22.4923 9.60815 21.7489ZM14.8328 36.0347C12.7845 34.7185 12.2989 33.8381 12.0164 33.2199C13.1012 33.2299 15.0372 33.2455 17.0493 33.2429C17.5584 34.9355 18.9001 36.2972 20.237 37.6901C20.5882 38.0562 20.9217 38.3785 21.2357 38.6623C18.8572 38.0807 17.3872 37.6761 14.8328 36.0347ZM31.9978 37.3084C30.8096 38.1359 29.5103 38.6684 28.1522 38.9643C28.3434 38.7672 28.5605 38.5423 28.8083 38.2845C29.9874 37.058 30.778 35.7522 31.4091 34.6804C31.6543 34.2627 31.9969 33.7333 32.3351 33.2013C32.6781 33.1917 32.9515 33.1848 33.0752 33.1861C33.6907 33.1917 34.7343 33.1891 35.6889 33.1839C34.9086 34.5097 34.4895 35.5733 31.9978 37.3084ZM38.6305 28.6002C38.3386 29.5967 37.5726 30.5229 36.7542 31.6147C35.874 31.7131 34.7503 31.5792 33.2724 31.6407C33.3438 31.5042 33.4022 31.3808 33.4485 31.2707C34.4472 28.8272 34.2434 28.6123 33.6837 25.9925C33.6522 25.8443 33.6115 25.6892 33.5644 25.535H33.5929C36.5795 25.6814 37.7162 25.4189 38.762 25.6424C38.9558 26.4426 38.9977 27.3481 38.6305 28.598V28.6002Z" fill="white"/>
<path d="M29.1301 5.78213L28.7836 6.25354L28.2081 6.08384L30.0874 3.6499L30.7064 3.83335L30.9611 6.89747L30.3819 6.72803L30.3303 6.14696L29.1301 5.78213ZM30.2338 4.30255L29.4331 5.35576L30.3142 5.62428L30.2338 4.30255Z" fill="white"/>
<path d="M36.2341 6.39662L34.9194 8.35703L35.8495 8.98008L35.5691 9.3991L34.1589 8.45483L35.7544 6.07327L36.2341 6.39662Z" fill="white"/>
<path d="M40.8036 11.1374L38.9848 12.6507L38.6204 12.2127L40.4392 10.6999L39.8209 9.95587L40.2057 9.63557L41.8045 11.5571L41.4196 11.8774L40.8036 11.1374Z" fill="white"/>
<path d="M43.1735 16.1841L43.6415 17.3223L43.1746 17.5124L42.7066 16.3742L42.0632 16.6385L42.592 17.9253L42.1256 18.1153L41.3774 16.295L44.0304 15.2051L44.7786 17.0255L44.3158 17.2153L43.7871 15.9286L43.1735 16.1841Z" fill="white"/>
<path d="M43.1717 22.9571L44.211 22.2982L44.1782 21.9787L43.0838 22.0904L43.0268 21.5312L45.8785 21.241L45.9935 22.3667C46.0475 22.8988 45.6499 23.2929 45.1746 23.3414C44.7978 23.3798 44.4277 23.1674 44.3039 22.8307L43.2376 23.6002L43.1717 22.9571ZM45.1245 22.8206C45.3716 22.7954 45.5157 22.6268 45.4963 22.4329L45.4368 21.8514L44.6232 21.934L44.6823 22.5161C44.7024 22.7131 44.8697 22.8457 45.1245 22.82L45.1245 22.8206Z" fill="white"/>
<path d="M42.5468 29.7637L42.6783 29.1903L44.9333 28.2847L42.9885 27.8386L43.1176 27.2759L45.9116 27.9171L45.7795 28.4906L43.5281 29.4012L45.4686 29.8465L45.3405 30.4081L42.5468 29.7637Z" fill="white"/>
<path d="M42.3702 34.5411L41.7338 35.5954L41.302 35.3348L41.9368 34.2811L41.3424 33.9238L40.6243 35.1156L40.1925 34.855L41.2082 33.169L43.6618 34.6465L42.6455 36.3325L42.217 36.0744L42.9346 34.8826L42.3702 34.5411Z" fill="white"/>
<path d="M38.7913 39.2065L37.8837 40.0378L37.5428 39.6659L38.4503 38.8346L37.9804 38.3216L36.9581 39.2612L36.6172 38.8893L38.0678 37.5597L40.0048 39.6727L38.5495 41.0032L38.2088 40.6339L39.2342 39.6941L38.7913 39.2065Z" fill="white"/>
<path d="M32.4426 41.5424L33.4182 42.2924L33.7071 42.1526L33.2269 41.1622L33.7346 40.9167L34.9851 43.496L33.9697 43.9869C33.4885 44.2206 32.9821 43.982 32.7736 43.552C32.6081 43.2119 32.68 42.7907 32.9546 42.5595L31.8664 41.8215L32.4426 41.5424ZM33.2415 43.3298C33.35 43.5532 33.5575 43.631 33.7331 43.5458L34.259 43.2907L33.9021 42.5546L33.3762 42.8097C33.1998 42.8987 33.1321 43.1013 33.2437 43.3318L33.2415 43.3298Z" fill="white"/>
<path d="M28.3378 45.8353L27.8319 43.0139L28.3927 42.9133L28.8981 45.7352L28.3378 45.8353Z" fill="white"/>
<path d="M21.533 43.0988L22.1187 43.1581L23.2984 45.28L23.4992 43.2951L24.0733 43.3531L23.7851 46.2049L23.1994 46.1461L22.0155 44.0245L21.8156 46.0057L21.2452 45.9479L21.533 43.0988Z" fill="white"/>
<path d="M16.7932 43.2236C17.0455 42.6963 16.842 42.2093 16.4418 42.0179C16.0834 41.8467 15.6736 41.8706 15.517 42.1986L16.148 42.5003L15.9356 42.945L14.7632 42.3841C15.0747 41.5855 15.8023 41.1147 16.6711 41.53C17.4227 41.8895 17.6723 42.6525 17.2863 43.4594C16.9154 44.2354 16.1484 44.5635 15.4176 44.2141C14.8246 43.9302 14.4543 43.3934 14.656 42.706L15.1659 42.95C15.1163 43.2159 15.2778 43.5584 15.5947 43.7073C16.1085 43.9554 16.5345 43.765 16.7932 43.2236Z" fill="white"/>
<path d="M11.4127 39.7711C11.3543 39.8279 11.285 39.8725 11.2091 39.9021C11.1331 39.9317 11.052 39.9458 10.9705 39.9436C10.889 39.9413 10.8088 39.9227 10.7346 39.8889C10.6604 39.8551 10.5937 39.8068 10.5385 39.7468C10.4833 39.6868 10.4407 39.6164 10.4132 39.5396C10.3857 39.4629 10.3739 39.3814 10.3784 39.3C10.3829 39.2186 10.4037 39.1389 10.4395 39.0657C10.4754 38.9925 10.5255 38.9272 10.587 38.8737C10.7068 38.7694 10.8626 38.716 11.0212 38.7248C11.1798 38.7336 11.3287 38.8039 11.4363 38.9208C11.5438 39.0377 11.6015 39.192 11.5971 39.3507C11.5927 39.5095 11.5266 39.6603 11.4127 39.7711Z" fill="white"/>
<path d="M8.06491 35.5126L7.81235 35.0758C8.09334 34.9134 8.12394 34.6304 7.99674 34.3727C7.85401 34.0804 7.61095 34.0045 7.41624 34.1173C7.16807 34.2611 7.24342 34.513 7.3445 34.8476C7.52096 35.4347 7.43689 35.8011 7.05923 36.0222C6.64556 36.2611 6.16587 36.0889 5.88827 35.6092C5.60475 35.1199 5.64995 34.6255 6.1207 34.2645L6.37196 34.6978C6.16496 34.875 6.16109 35.1198 6.30493 35.368C6.43739 35.596 6.62218 35.6791 6.78762 35.583C6.95305 35.487 6.97436 35.3338 6.85058 34.9373C6.73575 34.5711 6.59093 34.0013 7.14678 33.679C7.60082 33.4168 8.12122 33.6009 8.42011 34.1148C8.72738 34.6433 8.5822 35.2618 8.06491 35.5126Z" fill="white"/>
<path d="M3.87873 29.1151L6.19004 28.6102L6.31134 29.1665L4.00003 29.6713L4.20677 30.6163L3.71719 30.723L3.18375 28.2809L3.67281 28.1742L3.87873 29.1151Z" fill="white"/>
<path d="M4.72194 24.0179L2.86624 23.8328L2.92373 23.2514L4.67653 23.4285C4.75558 23.4388 4.83587 23.433 4.91267 23.4117C4.98946 23.3904 5.0612 23.3539 5.12365 23.3043C5.18609 23.2548 5.23798 23.1933 5.27623 23.1233C5.31448 23.0534 5.33833 22.9765 5.34636 22.8972C5.3544 22.8179 5.34645 22.7378 5.323 22.6617C5.29955 22.5855 5.26107 22.5148 5.20983 22.4537C5.15858 22.3927 5.09562 22.3425 5.02467 22.3062C4.95371 22.2699 4.8762 22.2482 4.79671 22.2424L3.04353 22.0674L3.1031 21.4932L4.95881 21.6784C5.53286 21.7364 5.9415 22.2962 5.87543 22.95C5.80936 23.6039 5.29581 24.0733 4.72194 24.0179Z" fill="white"/>
<path d="M4.58492 16.1276C4.92274 15.3744 5.59303 15.0074 6.47648 15.4069C7.35993 15.8065 7.53193 16.555 7.19711 17.2985L6.78814 18.2052L4.17793 17.0325L4.58492 16.1276ZM6.24431 15.9297C5.62008 15.6495 5.25285 15.862 5.03985 16.3361L4.86956 16.7155L6.56772 17.4774L6.73802 17.0981C6.94769 16.6289 6.85119 16.2021 6.24431 15.9297Z" fill="white"/>
<path d="M7.95882 10.6716L10.1549 12.5125L9.7892 12.949L7.59256 11.1082L7.95882 10.6716Z" fill="white"/>
<path d="M11.8731 8.76776C11.4151 8.09491 11.5284 7.22256 12.2172 6.75345C12.8684 6.3085 13.7593 6.49919 14.2173 7.17204C14.6753 7.84489 14.5275 8.74118 13.8732 9.18634C13.1843 9.65493 12.3311 9.44061 11.8731 8.76776ZM13.7564 7.48611C13.4639 7.05624 12.9715 6.91118 12.53 7.2113C12.0886 7.51141 12.0366 8.02836 12.3291 8.45823C12.6216 8.8881 13.1183 9.02604 13.5602 8.72485C14.002 8.42365 14.0466 7.91247 13.7564 7.48611Z" fill="white"/>
<path d="M18.0379 5.91987L18.5226 5.78101C18.6121 6.09333 18.8788 6.19225 19.1596 6.13168C19.4782 6.06479 19.6121 5.8481 19.5493 5.63206C19.4707 5.35676 19.2075 5.36782 18.8586 5.38434C18.2464 5.41193 17.9117 5.24062 17.7921 4.82175C17.6608 4.36276 17.9456 3.93976 18.4787 3.78754C19.0226 3.63246 19.4908 3.79707 19.7246 4.34178L19.2431 4.48043C19.1211 4.23703 18.8851 4.17322 18.6098 4.25178C18.356 4.32202 18.2303 4.48302 18.283 4.6667C18.3357 4.85039 18.4795 4.9091 18.8941 4.8864C19.2773 4.86485 19.865 4.86364 20.0415 5.48112C20.1849 5.98493 19.8791 6.44562 19.3058 6.60904C18.7191 6.77499 18.1544 6.48277 18.0379 5.91987Z" fill="white"/>
<path d="M23.9453 4.63032C23.9464 4.46868 24.0116 4.31408 24.1266 4.20053C24.2416 4.08697 24.3971 4.02376 24.5587 4.0248C24.7204 4.02584 24.875 4.09105 24.9885 4.20608C25.1021 4.32111 25.1653 4.47654 25.1643 4.63817C25.1632 4.7998 25.098 4.9544 24.983 5.06796C24.8679 5.18152 24.7125 5.24473 24.5509 5.24368C24.3892 5.24264 24.2346 5.17744 24.1211 5.06241C24.0075 4.94738 23.9443 4.79195 23.9453 4.63032Z" fill="white"/>
</svg>
