<svg width="90" height="61" viewBox="0 0 90 61" fill="none" xmlns="http://www.w3.org/2000/svg">
<path d="M59.8666 0.025116C60.2087 1.03043 60.6217 2.01871 60.8694 3.04106C61.1762 4.25084 60.9402 5.44359 60.1969 6.55966C59.8312 7.11343 59.4418 7.67573 58.9816 8.19543C57.0349 10.3935 56.6691 12.7705 57.4006 15.2752C57.9316 17.1069 58.5687 18.9216 58.9816 20.7704C59.607 23.5904 59.3474 26.4359 59.0878 29.2729C58.8519 31.8203 58.4035 34.3677 58.7103 36.9236C58.9345 38.7979 59.6188 40.57 60.893 42.2142C61.1998 42.6061 61.4712 43.0151 61.7426 43.4155C62.4977 44.5316 62.4505 45.6476 61.483 46.653C60.5627 47.6072 59.4772 48.4847 58.4625 49.3878C57.8136 49.9586 57.082 50.4783 56.5039 51.0746C55.5364 52.0544 55.6426 52.8041 56.9051 53.5879C57.9906 54.261 59.1704 54.8488 60.3503 55.4452C61.8487 56.2034 62.5331 57.2002 62.3679 58.5378C62.2735 59.3301 62.3561 60.131 62.3561 60.9744C62.3797 60.9744 62.2145 60.9915 62.0375 60.9915C58.0731 60.9915 54.1088 60.9829 50.1444 61C49.6606 61 49.4011 60.9233 49.3775 60.5485C49.3421 59.8839 49.1887 59.2109 49.2595 58.5549C49.4129 57.2514 48.7993 56.2375 47.3245 55.4878C46.3452 54.9851 45.3659 54.474 44.3984 53.9628C44.068 53.7839 43.7495 53.5794 43.4663 53.3579C42.664 52.736 42.546 52.1311 43.1241 51.3899C43.4073 51.032 43.7613 50.6913 44.1388 50.376C44.9294 49.72 45.7671 49.0981 46.5576 48.4421C47.0885 47.9991 47.5841 47.5305 48.056 47.0619C49.3657 45.7754 49.5545 44.4038 48.3864 43.0321C45.6491 39.8117 45.2243 36.2846 45.6373 32.6382C45.8261 31.0109 45.9558 29.3752 46.1328 27.7394C46.5222 23.9567 46.1092 20.2336 44.7052 16.5702C44.1624 15.1559 43.8439 13.6991 44.009 12.2082C44.127 11.0921 44.5282 10.0357 45.2715 9.05591C45.7553 8.40842 46.2508 7.76944 46.7464 7.12195C47.8318 5.72474 48.1504 4.22529 47.7257 2.6662C47.4897 1.78016 47.1357 0.919675 46.8289 0.0421553C51.1473 0.025116 55.501 0.025116 59.8666 0.025116Z" fill="white"/>
<path d="M29.6855 0.025116C29.9922 0.936715 30.3462 1.83127 30.594 2.75139C30.9951 4.24232 30.6884 5.67362 29.6619 7.01972C29.4141 7.34346 29.2017 7.67573 28.9186 7.98243C26.7358 10.3509 26.4054 12.9153 27.2667 15.6245C27.7859 17.2688 28.3286 18.9131 28.7062 20.5744C29.2961 23.1303 29.1309 25.7032 28.9422 28.2762C28.7298 31.028 28.4938 33.7798 28.4702 36.5317C28.4466 38.5252 29.2843 40.4166 30.6176 42.1802C31.0069 42.6913 31.3609 43.2196 31.6795 43.7563C32.175 44.5912 32.1632 45.4432 31.5379 46.2185C30.9833 46.9256 30.3226 47.5901 29.6265 48.2376C29.0601 48.7658 28.3876 49.2259 27.7741 49.7285C27.3021 50.1119 26.8066 50.4953 26.3818 50.9128C25.2256 52.0374 25.3435 52.8382 26.8656 53.7242C27.8921 54.3206 28.9776 54.8659 30.0512 55.4111C31.5497 56.1609 32.2458 57.1491 32.0924 58.4952C32.0098 59.3046 32.1514 60.1225 32.1868 60.9574C27.9511 60.9574 23.6209 60.9574 19.1374 60.9574C19.0784 60.2417 18.866 59.5176 18.984 58.8275C19.2672 57.1747 18.3587 56.0245 16.4827 55.1641C15.5742 54.7381 14.6893 54.2695 13.8398 53.7839C12.247 52.8638 12.0818 52.0118 13.3324 50.8616C14.2645 50.0097 15.35 49.2514 16.3057 48.4165C17.0254 47.7861 17.7098 47.1301 18.2879 46.4314C19.043 45.5369 19.0784 44.5657 18.4767 43.5944C18.2761 43.2707 18.0873 42.9469 17.8396 42.6487C15.7158 40.0758 15.0551 37.2558 15.2674 34.3166C15.4208 32.0503 15.6568 29.7841 15.881 27.5179C16.2349 23.8204 15.7866 20.1825 14.4533 16.6043C13.8752 15.0367 13.4268 13.4265 13.8162 11.7992C14.0286 10.9217 14.4415 10.0612 14.8781 9.2263C15.1848 8.63844 15.6686 8.09319 16.1405 7.55645C17.698 5.75882 17.9339 3.8419 17.2024 1.82275C16.99 1.22638 16.7895 0.630009 16.5771 0.0336358C20.9662 0.0251162 25.3199 0.025116 29.6855 0.025116Z" fill="white"/>
<path d="M89.0677 60.9829C85.5871 60.9829 82.1183 60.9744 78.6377 60.9915C78.2011 60.9915 77.9297 60.9318 77.9179 60.574C77.8825 59.9265 77.7056 59.2705 77.7881 58.6315C77.9769 57.2428 77.3044 56.2034 75.7352 55.4026C74.4845 54.7721 73.2456 54.1161 72.1012 53.4005C71.1573 52.8041 71.0747 52.1566 71.6764 51.3643C71.9478 51.015 72.2781 50.6913 72.6439 50.3845C73.399 49.7541 74.2013 49.1492 74.9682 48.5273C75.4402 48.1354 75.8886 47.7349 76.3369 47.326C77.9061 45.9032 78.1303 44.4038 76.7971 42.8191C74.4019 39.9736 73.812 36.8554 74.1069 33.6094C74.2957 31.488 74.5081 29.3752 74.6969 27.2623C75.0272 23.6841 74.5789 20.157 73.281 16.6895C72.6557 15.0452 72.2191 13.3498 72.6557 11.6373C72.8799 10.7428 73.34 9.87379 73.8238 9.03035C74.2013 8.37434 74.7559 7.76092 75.2514 7.13899C76.4077 5.67362 76.6909 4.11453 76.2071 2.48728C75.9593 1.65236 75.6054 0.842999 75.2986 0.025116C78.9562 0.025116 82.6256 0.025116 86.2832 0.025116C86.5546 0.681126 86.8496 1.32862 87.0738 1.99315C87.7345 3.9271 87.4749 5.76733 86.0001 7.4883C85.5281 8.04207 85.0326 8.60437 84.714 9.20074C84.2657 10.0186 83.8645 10.8621 83.6403 11.7225C83.2274 13.3839 83.7229 15.0196 84.2539 16.6213C85.0444 18.9813 85.8349 21.3412 85.7523 23.7778C85.6697 26.5807 85.3747 29.3752 85.2331 32.1781C85.1506 33.8906 85.0916 35.6201 85.2331 37.324C85.3983 39.3346 86.4484 41.1834 87.8643 42.9128C89.0913 44.4123 88.9144 45.8521 87.4395 47.1982C86.4838 48.0757 85.4219 48.8936 84.419 49.7541C83.8291 50.2653 83.192 50.7594 82.7082 51.3217C82.0239 52.097 82.1773 52.753 83.0622 53.409C83.2982 53.5879 83.5577 53.7583 83.8409 53.9031C84.8438 54.4399 85.8585 54.9596 86.8732 55.4878C88.23 56.1949 88.9498 57.1236 88.7728 58.3674C88.7374 58.5804 88.702 58.8019 88.7256 59.0149C88.82 59.6368 88.938 60.2588 89.0559 60.8807C89.0677 60.9148 89.0677 60.9489 89.0677 60.9829Z" fill="white"/>
<path d="M72.9393 0.0255588C73.8714 1.96803 74.6737 3.92754 73.6944 5.98077C73.3286 6.74753 72.8095 7.48874 72.2078 8.17883C70.3082 10.3769 69.9424 12.7368 70.7211 15.216C71.2167 16.8092 71.7948 18.3938 72.2196 20.004C72.9157 22.6451 72.8803 25.3203 72.7033 27.9954C72.5263 30.5343 72.2904 33.0646 72.2432 35.6035C72.2078 38.0486 73.0573 40.3659 74.7917 42.4873C74.8389 42.5469 74.8743 42.6066 74.9215 42.6662C76.5261 44.4383 76.1367 46.0826 74.3197 47.6246C73.2225 48.5533 72.078 49.4563 70.9807 50.3765C70.6385 50.6661 70.3082 50.9728 70.0486 51.3051C69.4115 52.1145 69.5059 52.7534 70.438 53.3839C71.1105 53.844 71.8774 54.2273 72.6089 54.6278C72.9393 54.8067 73.2814 54.9856 73.6354 55.1389C75.5232 55.9824 76.4435 57.141 76.1603 58.7938C76.0424 59.4754 76.2429 60.1825 76.3137 60.9578C75.3108 60.9578 74.2371 60.9663 73.1635 60.9408C73.0455 60.9408 72.8449 60.7534 72.8331 60.6341C72.7387 59.9696 72.5735 59.2965 72.6561 58.6405C72.8331 57.2348 72.1842 56.1613 70.5677 55.369C69.553 54.8748 68.5502 54.3636 67.5827 53.8184C65.7893 52.8046 65.6359 51.9696 67.0753 50.6747C67.9012 49.9334 68.8569 49.2689 69.6946 48.5277C70.4615 47.8461 71.2167 47.139 71.8538 46.3893C72.6325 45.4777 72.6325 44.4894 72.0072 43.5097C71.8066 43.1944 71.606 42.8707 71.3583 42.5725C69.1991 39.974 68.5266 37.12 68.7153 34.1466C68.8569 31.923 69.0457 29.7079 69.2463 27.4928C69.6002 23.6504 69.0103 19.8933 67.5827 16.1873C66.8865 14.3726 66.4972 12.4983 67.2877 10.6495C67.6771 9.73792 68.2198 8.8178 68.9395 8.01695C70.9571 5.76778 71.1341 3.4334 69.9778 0.962716C69.8362 0.64749 69.7418 0.323745 69.6238 0C70.7093 0.0255588 71.8184 0.0255588 72.9393 0.0255588Z" fill="white"/>
<path d="M7.2912 0.0253906C7.59797 0.936989 7.95193 1.83155 8.19971 2.75167C8.60086 4.2426 8.2941 5.68241 7.26761 7.01999C7.01983 7.34374 6.80746 7.676 6.52429 7.98271C4.35332 10.3512 4.02295 12.9156 4.87246 15.6248C5.39161 17.2691 5.93435 18.9134 6.32371 20.5747C6.92544 23.1476 6.74846 25.7376 6.54788 28.3275C6.33551 31.0794 6.11133 33.8312 6.08773 36.583C6.07593 38.5255 6.89005 40.3658 8.17611 42.0867C8.53007 42.5553 8.87223 43.0324 9.179 43.518C9.81613 44.4892 9.80433 45.4775 9.03742 46.3976C8.49467 47.0537 7.85754 47.6756 7.19681 48.272C6.57148 48.8343 5.85176 49.3369 5.20283 49.8736C4.73088 50.2656 4.24713 50.6489 3.84597 51.0749C2.92567 52.0462 3.03186 52.7788 4.24713 53.5541C5.00225 54.0397 5.86356 54.4402 6.67767 54.8917C7.3266 55.2495 7.97553 55.5903 8.58906 55.9737C9.32059 56.4338 9.69815 57.0472 9.72174 57.7458C9.73354 58.2825 9.65095 58.8192 9.68635 59.3475C9.70994 59.8757 9.82793 60.4039 9.91052 60.9577C8.86044 60.9577 7.82215 60.9577 6.63047 60.9577C6.57148 60.2335 6.3591 59.5093 6.47709 58.8192C6.74846 57.192 5.88715 56.0418 4.03475 55.1814C3.10265 54.7469 2.20595 54.2783 1.33284 53.7756C-0.259987 52.8555 -0.425169 52.0121 0.837296 50.8534C1.734 50.027 2.79589 49.2943 3.71619 48.4764C4.44771 47.8375 5.15563 47.1644 5.76917 46.4658C6.57148 45.5372 6.60688 44.5404 5.96975 43.5436C5.78097 43.2369 5.60398 42.9302 5.36801 42.6405C3.17345 39.9909 2.55991 37.0857 2.79589 34.0612C2.98467 31.6758 3.20884 29.2903 3.42122 26.9133C3.73978 23.4288 3.20884 20.0209 1.96997 16.6472C1.38004 15.0284 0.908088 13.3756 1.33284 11.6973C1.54522 10.8538 1.94638 10.0274 2.38293 9.22657C2.7015 8.63872 3.18524 8.09346 3.64539 7.55673C5.19103 5.75909 5.4388 3.84218 4.70728 1.82303C4.4949 1.22666 4.29432 0.630283 4.09375 0.0339104C5.15563 0.0253908 6.22932 0.0253906 7.2912 0.0253906Z" fill="white"/>
<path d="M65.5655 0.025116C65.8251 0.766322 66.12 1.50753 66.3442 2.25726C66.8752 4.00378 66.651 5.67362 65.3531 7.24123C65.07 7.58201 64.834 7.94836 64.539 8.28914C62.663 10.4105 62.309 12.7108 63.0052 15.1304C63.4653 16.7491 64.0199 18.3508 64.4446 19.978C65.1407 22.6617 65.0464 25.3624 64.7986 28.0717C64.6098 30.176 64.362 32.2719 64.2322 34.3677C64.0435 37.2899 64.716 40.0929 66.828 42.6487C67.0285 42.8958 67.1819 43.1514 67.3589 43.407C68.1022 44.5231 68.055 45.6306 67.0875 46.6444C66.2262 47.5475 65.2233 48.3824 64.244 49.2344C63.6423 49.7626 62.9462 50.2397 62.368 50.7765C61.0112 52.0288 61.1646 52.8808 62.899 53.8435C63.8901 54.3888 64.9048 54.917 65.9313 55.4282C67.4061 56.1694 68.0904 57.1491 67.9488 58.4697C67.8663 59.279 67.996 60.0969 68.0314 60.9744C67.2055 60.9744 66.2616 60.9915 65.3295 60.9574C65.1879 60.9489 64.9638 60.7529 64.952 60.6251C64.8576 59.9606 64.6924 59.2875 64.7868 58.6315C64.9874 57.2002 64.2794 56.1353 62.6394 55.343C61.6247 54.8488 60.6218 54.3291 59.6661 53.7839C58.0379 52.8467 57.8609 52.0459 59.1234 50.8702C60.0201 50.0267 61.1056 49.277 62.0495 48.4591C62.7574 47.8457 63.4417 47.2067 64.0199 46.5252C64.8458 45.571 64.9048 44.5401 64.244 43.5092C64.0553 43.2196 63.8901 42.9299 63.6659 42.6573C61.5185 40.0503 60.8696 37.1962 61.082 34.2228C61.2472 31.8374 61.4831 29.4519 61.7073 27.0749C62.0495 23.5222 61.5185 20.0462 60.2561 16.6043C59.5953 14.8237 59.2178 13.009 59.7369 11.1517C60.0555 9.98454 60.8814 8.97923 61.6247 7.93984C62.2383 7.08788 62.8636 6.21036 63.2176 5.29024C63.7603 3.8845 63.3001 2.47024 62.7692 1.09007C62.6394 0.740763 62.5096 0.38294 62.3916 0.025116C63.4299 0.025116 64.5036 0.025116 65.5655 0.025116Z" fill="white"/>
<path d="M39.8323 0.025116C40.1981 1.2775 40.6464 2.52988 40.8824 3.79078C41.083 4.85574 40.6464 5.87809 39.9621 6.83229C39.6554 7.25827 39.3604 7.70129 38.9946 8.11023C37.0596 10.2657 36.5995 12.6001 37.2956 15.0793C37.7558 16.681 38.3103 18.2741 38.7233 19.8843C39.4548 22.7128 39.3132 25.5669 39.089 28.4295C38.8766 31.0791 38.6407 33.7287 38.6171 36.3868C38.5935 38.4741 39.443 40.4422 40.8588 42.2739C41.1538 42.6573 41.4134 43.0492 41.6729 43.4325C42.4163 44.5316 42.3691 45.6306 41.4134 46.6274C40.4577 47.6071 39.3604 48.5187 38.3103 49.4474C37.6968 49.9926 36.9888 50.4868 36.4343 51.0576C35.4432 52.0459 35.5612 52.8212 36.8473 53.605C37.9209 54.261 39.089 54.8488 40.2453 55.4282C41.7791 56.1949 42.4399 57.2088 42.2747 58.5634C42.1803 59.3472 42.3337 60.148 42.3691 60.9915C41.5078 60.9915 40.5875 61.0085 39.6672 60.9744C39.5256 60.9659 39.3014 60.7785 39.2896 60.6592C39.1952 60.0287 39.0182 59.3898 39.1126 58.7678C39.325 57.311 38.6761 56.1864 36.977 55.3685C36.0331 54.917 35.1246 54.4228 34.2161 53.9287C33.8858 53.7498 33.579 53.5453 33.2958 53.3238C32.5525 52.736 32.4109 52.1396 32.9537 51.441C33.2958 51.0065 33.7206 50.6061 34.1689 50.2312C35.1246 49.4303 36.1393 48.6806 37.0714 47.8713C37.6142 47.3942 38.0743 46.8659 38.4873 46.3292C39.148 45.4772 39.1834 44.5742 38.6407 43.6711C38.4047 43.2707 38.1569 42.8788 37.8501 42.5039C36.1157 40.3314 35.3488 37.98 35.3724 35.4923C35.3842 34.0098 35.5376 32.5189 35.6438 31.0365C35.7854 29.1196 35.9859 27.2027 36.0803 25.2858C36.1983 22.7469 35.7736 20.2507 34.9477 17.7885C34.4993 16.4594 34.1335 15.1133 33.8976 13.7587C33.579 11.9867 34.0863 10.2998 35.337 8.74068C35.6792 8.32322 35.9741 7.88872 36.3281 7.47126C37.8029 5.7503 38.0625 3.90154 37.3782 1.96759C37.154 1.3201 36.8826 0.681126 36.6467 0.0336358C37.7086 0.0251162 38.7704 0.025116 39.8323 0.025116Z" fill="white"/>
</svg>
